<?xml version="1.0" standalone="no"?>
<!DOCTYPE svg PUBLIC "-//W3C//DTD SVG 20010904//EN"
 "http://www.w3.org/TR/2001/REC-SVG-20010904/DTD/svg10.dtd">
<svg version="1.0" xmlns="http://www.w3.org/2000/svg"
 width="1910.000000pt" height="1300.000000pt" viewBox="0 0 1910.000000 1300.000000"
 preserveAspectRatio="xMidYMid meet">
<metadata>
Created by potrace 1.16, written by Peter Selinger 2001-2019
</metadata>
<g transform="translate(0.000000,1300.000000) scale(0.100000,-0.100000)"
fill="#000000" stroke="none">
<path d="M0 6500 l0 -6500 9550 0 9550 0 0 6500 0 6500 -9550 0 -9550 0 0
-6500z m9095 1446 c50 -14 104 -26 120 -26 17 0 62 -12 100 -26 39 -14 116
-40 171 -58 123 -41 176 -68 291 -155 108 -81 154 -144 264 -364 77 -154 104
-232 129 -367 7 -36 28 -95 46 -132 36 -72 107 -266 148 -408 35 -121 180
-482 209 -517 5 -7 18 -13 29 -13 46 0 455 -180 856 -378 34 -16 82 -65 82
-84 0 -5 -21 9 -47 32 -27 23 -82 56 -123 75 -41 18 -172 79 -290 136 -228
109 -483 212 -489 197 -1 -5 5 -18 15 -29 35 -39 -11 -157 -131 -339 -71 -107
-231 -271 -289 -295 l-36 -15 0 -113 c-1 -152 -18 -484 -28 -527 -12 -55 -22
-19 -12 45 14 87 23 566 12 680 -5 55 -7 102 -5 104 10 12 17 -17 21 -89 5
-93 10 -96 74 -47 152 117 333 363 378 514 12 40 11 44 -33 135 -24 51 -58
122 -75 158 -36 77 -125 316 -142 380 -17 66 -108 327 -125 358 -12 23 -14 24
-15 7 0 -11 8 -60 17 -110 24 -126 23 -606 0 -747 -18 -103 -42 -186 -59 -203
-11 -10 -11 -11 17 95 57 208 59 618 6 955 -45 287 -59 334 -152 523 -45 92
-97 186 -115 209 -19 23 -34 46 -34 51 0 18 -98 101 -190 162 -67 44 -121 69
-198 94 -59 19 -134 45 -167 57 -52 19 -74 21 -168 16 -65 -3 -105 -2 -102 4
4 5 16 9 28 9 12 0 28 4 35 8 7 5 -22 17 -77 31 -107 28 -238 31 -293 8 -44
-18 -127 -78 -128 -91 0 -6 -21 -36 -47 -69 -49 -63 -44 -68 30 -30 17 9 27
10 27 3 0 -6 -25 -22 -56 -36 -31 -14 -75 -38 -98 -53 -23 -16 -65 -40 -94
-55 -96 -49 -178 -142 -218 -248 -65 -177 -158 -524 -175 -653 -14 -117 1
-334 31 -419 26 -77 72 -148 118 -182 62 -47 192 -176 225 -224 48 -71 153
-186 205 -224 97 -71 347 -180 494 -216 86 -20 113 -37 205 -122 34 -32 67
-58 73 -58 6 0 9 -4 5 -10 -10 -16 -38 1 -112 71 -77 73 -108 90 -194 108
-114 24 -352 126 -450 192 -49 33 -142 122 -211 201 l-23 27 -115 -35 c-144
-44 -218 -84 -292 -154 -47 -46 -58 -62 -58 -88 0 -40 31 -102 80 -162 65 -77
225 -329 285 -448 62 -123 110 -255 121 -330 10 -70 -10 -40 -30 46 -17 69
-45 146 -96 257 -46 101 -243 409 -310 485 -12 14 -31 42 -41 63 -11 20 -24
37 -29 37 -19 0 -62 -78 -91 -170 -50 -155 -79 -364 -80 -579 -1 -141 -4 -180
-12 -165 -7 12 -11 75 -9 171 4 318 81 664 166 742 17 16 26 35 26 54 0 22 15
44 61 92 73 76 153 120 302 165 59 18 107 38 107 44 0 6 -65 75 -145 153 -126
123 -149 150 -176 210 -66 146 -67 476 -3 698 65 228 96 330 118 391 52 145
132 246 235 295 51 24 156 121 209 194 57 77 105 117 172 142 55 21 235 10
345 -21z m201 -205 c193 -62 310 -118 402 -191 163 -128 412 -749 412 -1027 0
-28 12 -115 26 -194 26 -138 26 -145 10 -209 -8 -36 -25 -133 -36 -215 -43
-321 -70 -405 -194 -598 -64 -101 -179 -228 -193 -214 -4 4 12 27 36 51 l42
43 -89 66 c-49 37 -132 91 -186 122 -88 49 -131 66 -366 137 -66 20 -255 114
-354 177 -54 34 -125 75 -156 91 -31 16 -81 51 -111 78 -63 58 -184 222 -230
314 -17 34 -45 83 -62 107 -16 24 -34 62 -39 85 -5 22 -23 70 -41 106 -32 65
-32 65 -35 250 -3 149 -1 199 13 260 22 94 87 257 131 331 19 31 41 73 50 94
10 25 20 35 30 31 9 -4 43 21 92 68 60 57 93 80 145 101 52 21 78 39 110 76
32 38 53 52 92 63 76 22 89 23 256 25 147 1 162 -1 245 -28z m803 -2368 l-35
-38 13 -75 c8 -47 12 -144 10 -260 -1 -102 0 -256 2 -342 2 -120 0 -158 -10
-158 -9 0 -11 71 -7 320 4 238 2 320 -7 320 -6 0 -57 -18 -113 -40 -105 -41
-192 -61 -192 -43 0 6 20 13 44 16 25 4 95 26 156 49 l111 43 -6 55 c-9 81
-15 99 -31 93 -27 -10 -14 11 34 54 58 52 78 56 31 6z m1605 -85 c74 -127 101
-266 85 -441 -10 -124 -40 -283 -58 -315 -9 -15 -10 -14 -11 8 0 14 9 74 20
134 46 255 36 401 -40 563 -45 95 -44 93 -30 93 5 0 20 -19 34 -42z m-2206
-46 c1 -37 7 -79 13 -95 13 -31 7 -598 -6 -629 -12 -30 -25 -20 -17 15 10 47
7 601 -4 672 -9 59 -10 60 -43 63 -52 5 -60 -12 -24 -50 40 -43 43 -60 53
-273 7 -145 6 -204 -7 -303 -9 -68 -20 -119 -24 -115 -5 5 -3 38 3 73 12 69
14 377 2 494 -6 62 -10 73 -45 111 -34 36 -37 44 -26 59 10 14 78 40 117 45 3
1 6 -29 8 -67z"/>
<path d="M8835 7734 c-63 -14 -75 -20 -122 -68 -35 -36 -71 -61 -110 -76 -40
-16 -80 -44 -128 -90 -38 -36 -85 -75 -102 -85 -18 -11 -33 -22 -33 -25 0 -4
-18 -36 -40 -72 -52 -86 -103 -217 -92 -232 5 -6 12 -32 15 -58 9 -63 43 -162
70 -203 115 -171 217 -278 308 -323 96 -47 181 -83 177 -74 -9 21 -94 121
-104 121 -15 1 -124 118 -164 176 -55 80 -25 60 50 -35 70 -88 85 -101 92 -79
2 5 22 -16 44 -48 23 -32 109 -130 191 -218 186 -199 323 -297 448 -321 19 -3
38 -11 42 -17 9 -15 -61 0 -132 28 -32 14 -60 23 -62 21 -1 -1 3 -34 11 -73
13 -71 11 -173 -5 -173 -4 0 -5 21 -2 46 3 27 -2 82 -13 136 l-18 90 -60 40
c-32 23 -77 57 -98 76 -33 30 -47 35 -91 37 -29 1 -67 10 -86 19 -44 23 -123
102 -160 161 -19 30 -45 54 -71 67 -56 28 -127 94 -222 207 -91 109 -141 203
-160 304 -7 37 -15 67 -18 67 -4 0 -14 -35 -24 -78 -14 -63 -17 -113 -14 -263
3 -183 3 -184 35 -249 17 -36 37 -85 44 -110 7 -25 23 -58 35 -75 12 -16 36
-59 54 -95 42 -84 162 -252 220 -310 25 -25 75 -60 110 -79 36 -19 110 -62
165 -96 166 -103 234 -133 480 -212 167 -53 325 -138 458 -247 49 -39 61 -45
73 -35 25 21 105 149 155 249 57 114 82 209 104 395 9 77 26 182 37 234 20 91
20 96 3 200 -9 58 -20 112 -24 119 -4 8 -14 -9 -24 -42 -14 -42 -34 -73 -90
-132 -75 -81 -179 -164 -204 -164 -8 0 11 20 44 43 76 57 203 188 221 229 45
106 52 191 28 338 -38 230 -237 692 -353 821 -69 77 -252 169 -449 228 -59 17
-96 21 -220 20 -90 0 -177 -6 -219 -15z m150 -1719 c60 -72 141 -164 180 -206
93 -100 228 -319 196 -319 -5 0 -13 10 -17 23 -7 22 -74 132 -122 199 -15 20
-88 106 -162 190 -154 174 -250 291 -250 304 1 11 35 -27 175 -191z"/>
<path d="M8669 6431 c18 -33 111 -129 145 -150 39 -25 116 -39 116 -22 0 29
-92 108 -173 149 -47 23 -88 42 -91 42 -4 0 -2 -9 3 -19z"/>
</g>
</svg>
